<svg width="35" height="35" viewBox="0 0 35 35" fill="none" xmlns="http://www.w3.org/2000/svg">
<rect x="0.5" y="0.5" width="34" height="34" rx="4.5" fill="white"/>
<rect x="0.5" y="0.5" width="34" height="34" rx="4.5" stroke="#E1DFDF"/>
<g clip-path="url(#clip0_12329_16171)">
<path d="M21.4858 17.2024C21.4575 16.6263 21.3489 16.0785 21.16 15.5591C20.9711 15.0396 20.7114 14.558 20.3808 14.1141C20.1919 14.3124 19.9747 14.5202 19.7292 14.7374C19.0492 15.3041 18.2653 15.7763 17.3775 16.1541C17.5003 16.4091 17.6089 16.6452 17.7033 16.8624L17.7742 17.0608C18.7847 16.9474 19.885 16.971 21.075 17.1316L21.4858 17.2024ZM14.8417 11.9183C14.9739 12.0977 15.1108 12.296 15.2525 12.5133C15.7153 13.1838 16.1356 13.8544 16.5133 14.5249L16.7542 14.9499C17.5853 14.6194 18.3031 14.1991 18.9075 13.6891C19.1247 13.5096 19.3136 13.3302 19.4742 13.1508C18.9736 12.7352 18.4164 12.4141 17.8025 12.1874C17.1697 11.9513 16.5133 11.8333 15.8333 11.8333C15.5028 11.8333 15.1722 11.8616 14.8417 11.9183ZM10.3508 16.0833C10.7947 16.0738 11.2764 16.0455 11.7958 15.9983C12.9953 15.8849 14.1428 15.6913 15.2383 15.4174C14.8417 14.7185 14.4025 14.0102 13.9208 13.2924C13.7131 12.9808 13.5147 12.688 13.3258 12.4141C12.5892 12.7824 11.9588 13.2853 11.4346 13.9228C10.9104 14.5603 10.5492 15.2805 10.3508 16.0833ZM11.4275 21.0699C11.7392 20.6166 12.1122 20.168 12.5467 19.7241C13.6422 18.6002 14.8606 17.821 16.2017 17.3866L16.2442 17.3724C16.1214 17.1174 16.0081 16.886 15.9042 16.6783C14.6575 17.0371 13.3117 17.2827 11.8667 17.4149C11.2528 17.4716 10.6861 17.4999 10.1667 17.4999C10.1667 18.1705 10.28 18.8127 10.5067 19.4266C10.7239 20.0216 11.0308 20.5694 11.4275 21.0699ZM17.9583 22.7558C17.8828 22.3402 17.7836 21.9058 17.6608 21.4524C17.4247 20.508 17.1414 19.5919 16.8108 18.7041C15.4508 19.1952 14.3081 19.9177 13.3825 20.8716C12.9953 21.2683 12.6836 21.6602 12.4475 22.0474C12.9292 22.4063 13.4581 22.6826 14.0342 22.8762C14.6103 23.0698 15.21 23.1666 15.8333 23.1666C16.57 23.1666 17.2783 23.0296 17.9583 22.7558ZM19.29 21.9908C19.8378 21.5658 20.2958 21.0581 20.6642 20.4678C21.0325 19.8776 21.2781 19.2377 21.4008 18.5483C21.1269 18.4727 20.8342 18.416 20.5225 18.3783C19.7386 18.2649 18.9878 18.2555 18.27 18.3499C18.5817 19.2188 18.8461 20.1019 19.0633 20.9991C19.1483 21.3485 19.2239 21.6791 19.29 21.9908ZM15.8333 24.5833C14.87 24.5833 13.9492 24.3991 13.0708 24.0308C12.2303 23.6719 11.4818 23.1642 10.8254 22.5078C10.169 21.8514 9.66139 21.103 9.3025 20.2624C8.93417 19.3841 8.75 18.4633 8.75 17.4999C8.75 16.5366 8.93417 15.6158 9.3025 14.7374C9.66139 13.8969 10.169 13.1484 10.8254 12.492C11.4818 11.8356 12.2303 11.328 13.0708 10.9691C13.9492 10.6008 14.87 10.4166 15.8333 10.4166C16.7967 10.4166 17.7175 10.6008 18.5958 10.9691C19.4364 11.328 20.1849 11.8356 20.8413 12.492C21.4976 13.1484 22.0053 13.8969 22.3642 14.7374C22.7325 15.6158 22.9167 16.5366 22.9167 17.4999C22.9167 18.4633 22.7325 19.3841 22.3642 20.2624C22.0053 21.103 21.4976 21.8514 20.8413 22.5078C20.1849 23.1642 19.4364 23.6719 18.5958 24.0308C17.7175 24.3991 16.7967 24.5833 15.8333 24.5833Z" fill="black"/>
</g>
<defs>
<clipPath id="clip0_12329_16171">
<rect width="17.48" height="17" fill="white" transform="matrix(1 0 0 -1 8.75 26)"/>
</clipPath>
</defs>
</svg>
