<svg width="21" height="24" viewBox="0 0 21 24" fill="none" xmlns="http://www.w3.org/2000/svg">
<path d="M17.5686 4.47047C17.8029 4.47047 18.0009 4.55134 18.1626 4.71309C18.3244 4.87483 18.4052 5.07283 18.4052 5.30707V18.6927C18.4052 18.9269 18.3244 19.1249 18.1626 19.2867C18.0009 19.4484 17.8029 19.5293 17.5686 19.5293H2.5098C2.27556 19.5293 2.07756 19.4484 1.91582 19.2867C1.75407 19.1249 1.6732 18.9269 1.6732 18.6927V17.8561H16.732V8.06786L10.0392 14.0914L1.6732 6.56198V5.30707C1.6732 5.07283 1.75407 4.87483 1.91582 4.71309C2.07756 4.55134 2.27556 4.47047 2.5098 4.47047H17.5686ZM6.69281 14.5097V16.1829H0V14.5097H6.69281ZM4.18301 10.3267V11.9999H0V10.3267H4.18301ZM16.3639 6.14368H3.71451L10.0392 11.8326L16.3639 6.14368Z" fill="#F53E32"/>
</svg>
