<svg width="35" height="35" viewBox="0 0 35 35" fill="none" xmlns="http://www.w3.org/2000/svg">
<rect x="0.5" y="0.5" width="34" height="34" rx="4.5" fill="white"/>
<rect x="0.5" y="0.5" width="34" height="34" rx="4.5" stroke="#E1DFDF"/>
<g clip-path="url(#clip0_12329_16165)">
<path d="M13 16.0833H16.1875L15.8333 17.5H13V23.875H11.5833V17.5H8.75V16.0833H11.5833V14.7517C11.5833 14.1567 11.6117 13.6939 11.6683 13.3633C11.725 13.0894 11.8194 12.825 11.9517 12.57C12.2067 12.1072 12.5656 11.7531 13.0283 11.5075C13.2739 11.3658 13.5383 11.2714 13.8217 11.2242C14.1522 11.1581 14.615 11.125 15.21 11.125C15.5783 11.125 15.8994 11.1581 16.1733 11.2242V12.5417H15.21C14.7567 12.5417 14.4285 12.5558 14.2254 12.5842C14.0224 12.6125 13.8453 12.6692 13.6942 12.7542C13.4769 12.8675 13.3117 13.0281 13.1983 13.2358C13.1228 13.3869 13.0708 13.564 13.0425 13.7671C13.0142 13.9701 12.9953 14.2983 12.9858 14.7517V16.0833H13Z" fill="black"/>
</g>
<defs>
<clipPath id="clip0_12329_16165">
<rect width="17.48" height="17" fill="white" transform="matrix(1 0 0 -1 8.75 26)"/>
</clipPath>
</defs>
</svg>
