<svg width="35" height="35" viewBox="0 0 35 35" fill="none" xmlns="http://www.w3.org/2000/svg">
<rect x="0.5" y="0.5" width="34" height="34" rx="4.5" fill="white"/>
<rect x="0.5" y="0.5" width="34" height="34" rx="4.5" stroke="#E1DFDF"/>
<g clip-path="url(#clip0_12329_16174)">
<path d="M15.8333 15.3749C15.4461 15.3749 15.0896 15.4694 14.7638 15.6583C14.4379 15.8471 14.1806 16.1045 13.9917 16.4303C13.8028 16.7562 13.7083 17.1127 13.7083 17.4999C13.7083 17.8871 13.8028 18.2437 13.9917 18.5695C14.1806 18.8953 14.4379 19.1527 14.7638 19.3416C15.0896 19.5305 15.4461 19.6249 15.8333 19.6249C16.2206 19.6249 16.5771 19.5305 16.9029 19.3416C17.2288 19.1527 17.4861 18.8953 17.675 18.5695C17.8639 18.2437 17.9583 17.8871 17.9583 17.4999C17.9583 17.1127 17.8639 16.7562 17.675 16.4303C17.4861 16.1045 17.2288 15.8471 16.9029 15.6583C16.5771 15.4694 16.2206 15.3749 15.8333 15.3749ZM15.8333 13.9583C16.4756 13.9583 17.0682 14.1164 17.6112 14.4328C18.1543 14.7492 18.584 15.1789 18.9004 15.722C19.2168 16.2651 19.375 16.8577 19.375 17.4999C19.375 18.1421 19.2168 18.7348 18.9004 19.2778C18.584 19.8209 18.1543 20.2506 17.6112 20.567C17.0682 20.8834 16.4756 21.0416 15.8333 21.0416C15.1911 21.0416 14.5985 20.8834 14.0554 20.567C13.5124 20.2506 13.0826 19.8209 12.7663 19.2778C12.4499 18.7348 12.2917 18.1421 12.2917 17.4999C12.2917 16.8577 12.4499 16.2651 12.7663 15.722C13.0826 15.1789 13.5124 14.7492 14.0554 14.4328C14.5985 14.1164 15.1911 13.9583 15.8333 13.9583ZM20.4375 13.7741C20.4375 14.0196 20.3501 14.2298 20.1754 14.4045C20.0007 14.5792 19.7929 14.6666 19.5521 14.6666C19.3113 14.6666 19.1035 14.5792 18.9288 14.4045C18.754 14.2298 18.6667 14.022 18.6667 13.7812C18.6667 13.5403 18.754 13.3326 18.9288 13.1578C19.1035 12.9831 19.3113 12.8958 19.5521 12.8958C19.7929 12.8958 20.0007 12.9831 20.1754 13.1578C20.3501 13.3326 20.4375 13.538 20.4375 13.7741ZM15.8333 11.8333C14.9644 11.8333 14.3742 11.8356 14.0625 11.8403C13.7508 11.8451 13.3919 11.8569 12.9858 11.8758C12.4758 11.8946 12.0508 11.9702 11.7108 12.1024C11.4181 12.2158 11.1607 12.3834 10.9388 12.6053C10.7168 12.8273 10.5492 13.0846 10.4358 13.3774C10.3036 13.7174 10.2281 14.1424 10.2092 14.6524C10.1903 15.0396 10.1785 15.3867 10.1738 15.6937C10.169 16.0006 10.1667 16.6027 10.1667 17.4999C10.1667 18.3688 10.169 18.9591 10.1738 19.2708C10.1785 19.5824 10.1903 19.9413 10.2092 20.3474C10.2281 20.8574 10.3036 21.2824 10.4358 21.6224C10.5492 21.9152 10.7168 22.1726 10.9388 22.3945C11.1607 22.6164 11.4181 22.7794 11.7108 22.8833C12.0508 23.0249 12.4758 23.1052 12.9858 23.1241C13.3731 23.143 13.7201 23.1548 14.0271 23.1595C14.334 23.1642 14.9361 23.1666 15.8333 23.1666C16.7022 23.1666 17.2925 23.1642 17.6042 23.1595C17.9158 23.1548 18.2747 23.143 18.6808 23.1241C19.1908 23.1052 19.6158 23.0296 19.9558 22.8974C20.2486 22.7841 20.506 22.6164 20.7279 22.3945C20.9499 22.1726 21.1128 21.9152 21.2167 21.6224C21.3583 21.2824 21.4386 20.8574 21.4575 20.3474C21.4764 19.9602 21.4882 19.6131 21.4929 19.3062C21.4976 18.9992 21.5 18.3971 21.5 17.4999C21.5 16.631 21.4976 16.0408 21.4929 15.7291C21.4882 15.4174 21.4764 15.0585 21.4575 14.6524C21.4386 14.1424 21.3631 13.7174 21.2308 13.3774C21.1175 13.0846 20.9499 12.8273 20.7279 12.6053C20.506 12.3834 20.2486 12.2158 19.9558 12.1024C19.6158 11.9702 19.1908 11.8946 18.6808 11.8758C18.2936 11.8569 17.9465 11.8451 17.6396 11.8403C17.3326 11.8356 16.7306 11.8333 15.8333 11.8333ZM15.8333 10.4166C16.7589 10.4166 17.3917 10.4213 17.7317 10.4308C18.015 10.4308 18.355 10.4402 18.7517 10.4591C19.4128 10.4874 19.9842 10.596 20.4658 10.7849C20.9475 10.9738 21.3678 11.2477 21.7267 11.6066C22.0856 11.9655 22.3594 12.3858 22.5483 12.8674C22.7372 13.3491 22.8458 13.9205 22.8742 14.5816C22.8931 14.9877 22.9025 15.3277 22.9025 15.6016C22.9119 15.9605 22.9167 16.598 22.9167 17.5141C22.9167 18.4302 22.9119 19.0583 22.9025 19.3983C22.9025 19.6816 22.8931 20.0216 22.8742 20.4183C22.8458 21.0794 22.7372 21.6508 22.5483 22.1324C22.3594 22.6141 22.0856 23.0344 21.7267 23.3933C21.3678 23.7521 20.9475 24.026 20.4658 24.2149C19.9842 24.4038 19.4128 24.5124 18.7517 24.5408C18.3456 24.5596 18.0056 24.5691 17.7317 24.5691C17.3728 24.5785 16.7353 24.5833 15.8192 24.5833C14.9031 24.5833 14.275 24.5785 13.935 24.5691C13.6517 24.5691 13.3117 24.5596 12.915 24.5408C12.2539 24.5124 11.6825 24.4038 11.2008 24.2149C10.7192 24.026 10.2989 23.7521 9.94 23.3933C9.58111 23.0344 9.30722 22.6141 9.11833 22.1324C8.92944 21.6508 8.82083 21.0794 8.7925 20.4183C8.77361 20.0121 8.76417 19.6721 8.76417 19.3983C8.75472 19.0394 8.75 18.4019 8.75 17.4858C8.75 16.5696 8.75472 15.9416 8.76417 15.6016C8.76417 15.3183 8.77361 14.9783 8.7925 14.5816C8.82083 13.9205 8.92944 13.3491 9.11833 12.8674C9.30722 12.3858 9.58111 11.9655 9.94 11.6066C10.2989 11.2477 10.7192 10.9738 11.2008 10.7849C11.6825 10.596 12.2539 10.4874 12.915 10.4591C13.3211 10.4402 13.6611 10.4308 13.935 10.4308C14.2939 10.4213 14.9267 10.4166 15.8333 10.4166Z" fill="black"/>
</g>
<defs>
<clipPath id="clip0_12329_16174">
<rect width="17.48" height="17" fill="white" transform="matrix(1 0 0 -1 8.75 26)"/>
</clipPath>
</defs>
</svg>
