<svg width="21" height="24" viewBox="0 0 21 24" fill="none" xmlns="http://www.w3.org/2000/svg">
<path d="M7.52941 18.7262L11.6622 14.5767C12.4207 13.8293 12.9339 12.9481 13.2016 11.933C13.4581 10.9403 13.4581 9.9475 13.2016 8.95473C12.9339 7.93965 12.4235 7.05565 11.6706 6.3027C10.9176 5.54976 10.0336 5.03944 9.01856 4.77172C8.02579 4.51517 7.03303 4.51517 6.04026 4.77172C5.02519 5.03944 4.14118 5.54976 3.38824 6.3027C2.63529 7.05565 2.12497 7.93965 1.85725 8.95473C1.6007 9.9475 1.6007 10.9403 1.85725 11.933C2.12497 12.9481 2.63808 13.8293 3.3966 14.5767L7.52941 18.7262ZM7.52941 21.0854L2.20863 15.7647C1.23817 14.8054 0.585621 13.6676 0.25098 12.3513C-0.0836601 11.0797 -0.0836601 9.80806 0.25098 8.53643C0.585621 7.22018 1.23538 6.07961 2.20026 5.11473C3.16514 4.14985 4.30571 3.49451 5.62196 3.14872C6.89359 2.82523 8.16523 2.82523 9.43686 3.14872C10.7531 3.49451 11.8937 4.14985 12.8586 5.11473C13.8234 6.07961 14.4732 7.22018 14.8078 8.53643C15.1425 9.80806 15.1425 11.0797 14.8078 12.3513C14.4732 13.6676 13.8207 14.8054 12.8502 15.7647L7.52941 21.0854ZM7.52941 12.1171C7.83059 12.1171 8.10946 12.0418 8.36601 11.8912C8.62257 11.7406 8.82614 11.537 8.97673 11.2805C9.12732 11.0239 9.20261 10.7451 9.20261 10.4439C9.20261 10.1427 9.12732 9.86384 8.97673 9.60728C8.82614 9.35072 8.62257 9.14715 8.36601 8.99656C8.10946 8.84597 7.83059 8.77068 7.52941 8.77068C7.22824 8.77068 6.94937 8.84597 6.69281 8.99656C6.43625 9.14715 6.23268 9.35072 6.08209 9.60728C5.9315 9.86384 5.85621 10.1427 5.85621 10.4439C5.85621 10.7451 5.9315 11.0239 6.08209 11.2805C6.23268 11.537 6.43625 11.7406 6.69281 11.8912C6.94937 12.0418 7.22824 12.1171 7.52941 12.1171ZM7.52941 13.7903C6.92706 13.7903 6.36932 13.6397 5.85621 13.3385C5.34309 13.0373 4.93595 12.6302 4.63477 12.1171C4.33359 11.604 4.18301 11.0434 4.18301 10.4355C4.18301 9.82758 4.33359 9.26985 4.63477 8.76231C4.93595 8.25477 5.34309 7.85042 5.85621 7.54924C6.36932 7.24806 6.92706 7.09748 7.52941 7.09748C8.13176 7.09748 8.6895 7.24806 9.20261 7.54924C9.71573 7.85042 10.1229 8.25477 10.4241 8.76231C10.7252 9.26985 10.8758 9.82758 10.8758 10.4355C10.8758 11.0434 10.7252 11.604 10.4241 12.1171C10.1229 12.6302 9.71573 13.0373 9.20261 13.3385C8.6895 13.6397 8.13176 13.7903 7.52941 13.7903Z" fill="#F53E32"/>
</svg>
