<svg width="21" height="24" viewBox="0 0 21 24" fill="none" xmlns="http://www.w3.org/2000/svg">
<path d="M5.32078 10.8956C5.7112 11.5872 6.18806 12.2146 6.75137 12.7779C7.31468 13.3412 7.94213 13.8181 8.63373 14.2085L9.36993 13.1711C9.49264 12.9927 9.65717 12.8811 9.86353 12.8365C10.0699 12.7919 10.2679 12.8198 10.4575 12.9201C11.6511 13.5783 12.9283 13.9575 14.2892 14.0579C14.5011 14.0802 14.6824 14.1695 14.8329 14.3256C14.9835 14.4818 15.0588 14.6714 15.0588 14.8945V18.6258C15.0588 18.8377 14.9863 19.0245 14.8413 19.1863C14.6963 19.348 14.5178 19.4401 14.3059 19.4624C13.8597 19.507 13.4135 19.5293 12.9673 19.5293C11.2049 19.5293 9.52052 19.1891 7.91425 18.5086C6.36375 17.8505 4.99172 16.9247 3.79817 15.7311C2.60462 14.5376 1.67878 13.1655 1.02065 11.615C0.340218 10.0088 0 8.32442 0 6.56198C0 6.11579 0.0223094 5.6696 0.0669281 5.22341C0.0892375 5.01148 0.181264 4.833 0.343007 4.68799C0.504749 4.54298 0.69159 4.47047 0.903529 4.47047H4.63477C4.85786 4.47047 5.04749 4.54577 5.20366 4.69636C5.35983 4.84694 5.44906 5.02821 5.47137 5.24015C5.57176 6.60102 5.95102 7.87823 6.60915 9.07178C6.70954 9.26141 6.73743 9.45941 6.69281 9.66577C6.64819 9.87213 6.53664 10.0367 6.35817 10.1594L5.32078 10.8956ZM3.21255 10.3434L4.80209 9.20564C4.3559 8.23518 4.04915 7.21453 3.88183 6.14368H1.6732V6.56198C1.6732 8.09017 1.9688 9.55701 2.56 10.9625C3.12889 12.3122 3.93481 13.5086 4.97778 14.5515C6.02074 15.5945 7.21708 16.4004 8.5668 16.9693C9.97229 17.5605 11.4391 17.8561 12.9673 17.8561H13.3856V15.6475C12.3148 15.4801 11.2941 15.1734 10.3237 14.7272L9.18588 16.3167C8.72854 16.1383 8.28235 15.9263 7.84732 15.6809L7.79712 15.6642C6.98283 15.1957 6.24105 14.6268 5.57176 13.9575C4.90248 13.2883 4.33359 12.5465 3.8651 11.7322L3.84837 11.682C3.60296 11.2469 3.39102 10.8008 3.21255 10.3434Z" fill="#F53E32"/>
</svg>
