<svg width="22" height="21" viewBox="0 0 22 21" fill="none" xmlns="http://www.w3.org/2000/svg">
<g clip-path="url(#clip0_12329_16163)">
<path d="M0.3325 7.83988C0.110833 7.75822 0 7.66488 0 7.55988C0 7.45488 0.116667 7.36155 0.35 7.27988L17.045 1.71488C17.2783 1.63322 17.4533 1.6478 17.57 1.75863C17.6867 1.86947 17.71 2.04155 17.64 2.27488L12.88 18.9699C12.81 19.2032 12.7167 19.3228 12.6 19.3286C12.4833 19.3345 12.3783 19.2265 12.285 19.0049L9.135 11.9349L14.385 4.93488L7.385 10.1849L0.3325 7.83988Z" fill="black"/>
</g>
<defs>
<clipPath id="clip0_12329_16163">
<rect width="21.48" height="21" fill="white" transform="matrix(1 0 0 -1 0 21)"/>
</clipPath>
</defs>
</svg>
