<svg width="13" height="13" viewBox="0 0 13 13" fill="none" xmlns="http://www.w3.org/2000/svg">
<path d="M5.23643 0.808459C4.97245 1.07095 4.97798 1.49932 5.24739 1.75645L8.55957 4.92924H0.659743C0.294135 4.92924 0 5.22499 0 5.5926V6.47702C0 6.84454 0.294135 7.14028 0.659743 7.14028H8.55957L5.24739 10.3131C4.98069 10.5701 4.97516 10.9986 5.23643 11.2612L5.84661 11.8747C6.10225 12.1346 6.51993 12.1346 6.77838 11.8747L12.1219 6.50189C12.3803 6.24485 12.3803 5.82478 12.1219 5.56501L6.77838 0.194825C6.52274 -0.0649415 6.10486 -0.0649415 5.84661 0.194825L5.23643 0.808459Z" fill="#CD7A1D"/>
</svg>
